<svg xmlns="http://www.w3.org/2000/svg" width="800" height="800" fill="none" xmlns:v="https://vecta.io/nano"><g clip-path="url(#A)" fill="#5765f2"><path d="M439.524 638.5l3.298 9.485c6.224 17.903 15.091 31.229 28.136 42.285l4.448 3.769-169.953-.277c-191.64-.312-173.25.496-191.41-8.414-16.735-8.212-28.634-22.501-35.266-42.348l-3.175-9.5-.776-61.5h364.03l.668 66.5z"/><g fill-rule="evenodd"><path d="M383.85 182c.239 0 18.371 8.863 40.292 19.695L464 221.39l-.008 34.555c-.005 19.004-.457 38.472-1.006 43.262-2.555 22.299-13.292 38.969-33.986 52.768l-26.624 18.18C392.958 376.67 384.712 382 384.053 382c-1.059-.004-36.154-23.597-52.465-35.269-11.501-8.23-20.781-22.345-24.658-37.505-1.75-6.843-1.93-11.309-1.93-47.926v-40.379l39.208-19.461L383.85 182zm33.473 69c-2.323 0-6.347 3.549-23.244 20.5L373.327 292c-.174 0-4.404-3.937-9.401-8.75s-10.196-9.133-11.556-9.6c-5.558-1.912-12.499 4.716-11.037 10.54.331 1.32 6.646 8.343 14.034 15.605C368.776 312.979 368.806 313 373.525 313h4.728l16.49-16.25c24.77-24.409 32.263-33.01 32.225-36.991-.051-5.202-3.967-8.759-9.645-8.759zm7.427-145.934l204.25.531c-.002.33-2.65 3.489-5.888 7.022-6.508 7.102-11.688 16.226-15.263 26.881l-2.349 7-1.003 486-2.12 7c-5.628 18.585-14.885 31.659-29.392 41.51-20.459 13.893-47.397 16.659-70.94 7.283-21.634-8.616-38.403-27.943-43.635-50.293-1.441-6.153-1.818-13.43-2.101-40.5-.39-37.352-.54-38.175-7.455-40.942-3.459-1.384-19.037-1.558-139.391-1.558H173.967l.533-404.5 2.764-8.157c4.952-14.612 13.86-25.258 26.236-31.354 12.687-6.249-2.181-5.851 221.25-5.923zm47 341.118c-2.709-.312-2.75-.233-2.75 5.25 0 3.06-.441 5.564-.979 5.566s-2.834-.742-5.1-1.648c-3.495-1.399-4.257-1.437-5.025-.25-1.856 2.861-.496 5.208 3.854 6.653 4.6 1.528 5.089 2.303 2.703 4.284-.85.706-2.398 2.48-3.44 3.942l-1.893 2.659 5.757 3.401 6.923-9.067 2.85 4.511c1.568 2.48 3.137 4.51 3.489 4.513s1.699-.856 2.993-1.904l2.354-1.906-3.343-4.16c-1.839-2.288-3.139-4.365-2.889-4.616s2.434-1.04 4.851-1.755c3.765-1.114 4.355-1.645 4.116-3.707-.428-3.696-1.627-4.225-5.712-2.518-2.064.862-4.125 1.568-4.579 1.568s-.961-2.363-1.128-5.25c-.282-4.897-.487-5.271-3.052-5.566zM369 446c-2.97 0-3 .056-3 5.5 0 6.173-.468 6.456-6.509 3.932-4.216-1.762-5.852-.96-5.326 2.607.239 1.616 1.466 2.66 4.26 3.624 2.159.744 4.146 1.575 4.417 1.846s-1.01 2.36-2.845 4.644l-3.337 4.153 2.281 1.847c1.254 1.016 2.568 1.837 2.92 1.826s1.907-1.813 3.454-4 3.207-3.979 3.686-3.979 1.883 1.8 3.119 4 2.566 4 2.953 4 1.765-.858 3.059-1.906l2.354-1.906-3.343-4.16c-1.839-2.288-3.139-4.365-2.889-4.616s2.434-1.04 4.851-1.755c3.765-1.114 4.355-1.645 4.116-3.707-.422-3.647-1.521-4.14-5.512-2.473-5.405 2.259-5.709 2.047-5.709-3.977 0-5.444-.03-5.5-3-5.5zm33.667 0c-1.284 0-2.634.3-3 .667s-.667 2.841-.667 5.5-.441 4.833-.98 4.833-2.808-.732-5.041-1.625c-4.557-1.823-4.463-1.854-5.325 1.746-.577 2.412-.222 2.776 4.448 4.551l5.075 1.927-7.332 8.776 2.328 1.79c1.279.984 2.636 1.8 3.015 1.813s2.147-2.01 3.931-4.494l3.243-4.516 2.937 4.516c1.616 2.484 3.285 4.515 3.709 4.516s1.806-.839 3.073-1.864l2.302-1.865-3.191-4.029c-1.755-2.216-3.191-4.267-3.192-4.558s1.688-1.048 3.75-1.682l4.964-1.533c.912-.284.95-1.135.152-3.424-.583-1.674-1.185-3.044-1.338-3.045s-2.19.675-4.528 1.5-4.645 1.5-5.126 1.5-.874-2.475-.874-5.5c0-5.095-.172-5.5-2.333-5.5zM507 446c-2.97 0-3 .056-3 5.5 0 3.024-.441 5.498-.979 5.5s-2.808-.731-5.042-1.625-4.234-1.453-4.445-1.243-.529 1.681-.708 3.268c-.299 2.645.074 3.02 4.491 4.517l4.816 1.633-7.097 8.95 2.232 1.728c3.087 2.389 3.358 2.294 6.351-2.228 1.456-2.2 2.977-4 3.381-4s1.925 1.8 3.381 4 2.881 3.999 3.168 4 1.634-.729 2.994-1.62l2.472-1.62-6.806-9.474 4.645-1.469c4.166-1.317 4.625-1.758 4.441-4.264-.113-1.538-.38-2.971-.594-3.185s-2.316.29-4.671 1.121-4.675 1.511-5.156 1.511-.874-2.475-.874-5.5c0-5.444-.03-5.5-3-5.5zm-207 0c-2.97 0-3 .056-3 5.5 0 6.175-.467 6.456-6.523 3.926-4.146-1.732-5.432-.976-5.462 3.213-.011 1.622.769 2.289 3.235 2.764 6.073 1.17 6.402 1.946 2.863 6.752l-3.2 4.345 2.154 1.75c1.185.962 2.442 1.74 2.794 1.729s1.961-1.889 3.576-4.17l2.937-4.148 3.394 4.111c3.067 3.715 3.628 4.005 5.813 3.009 3.089-1.407 3.044-2.013-.546-7.231l-2.966-4.31 4.557-1.275c5.026-1.407 6.075-2.786 4.443-5.837-1.032-1.927-1.32-1.956-5.827-.589l-4.992 1.45c-.137.006-.25-2.464-.25-5.489 0-5.444-.03-5.5-3-5.5zm-35.333 0c-1.284 0-2.634.3-3 .667s-.667 2.841-.667 5.5-.322 4.832-.717 4.833-2.654-.74-5.022-1.644c-4.862-1.857-5.27-1.698-5.556 2.163-.182 2.447.31 2.934 4.295 4.259 2.475.823 4.666 1.638 4.869 1.811s-1.276 2.238-3.284 4.583l-3.653 4.268 2.284 1.758c1.255.965 2.593 1.768 2.972 1.78s2.147-2.01 3.931-4.494l3.243-4.516 2.937 4.516c1.616 2.484 3.222 4.506 3.569 4.494s1.681-.83 2.964-1.816l2.332-1.794-6.99-9.157 4.663-1.26c6.286-1.698 6.183-1.595 5.005-4.973-1.211-3.477-.908-3.395-5.496-1.478-5.862 2.449-6.346 2.144-6.346-4 0-5.095-.172-5.5-2.333-5.5zm69 0c-1.284 0-2.634.3-3 .667s-.667 3.023-.667 5.904v5.237l-10.046-3.817-.977 2.569c-.537 1.414-.977 2.73-.977 2.925s2.25 1.102 5 2.015c5.338 1.773 5.899 2.509 3.453 4.539-.85.706-2.442 2.541-3.536 4.078l-1.99 2.794 3.169 1.639c3.436 1.777 3.112 1.962 6.648-3.8.928-1.513 2.034-2.75 2.457-2.75s1.962 1.8 3.418 4c3.006 4.542 3.342 4.662 6.323 2.248l2.163-1.751-3.025-3.999c-1.663-2.199-3.037-4.301-3.052-4.67s1.66-1.193 3.722-1.826l4.964-1.533c.912-.284.95-1.135.152-3.424-.583-1.674-1.185-3.043-1.338-3.045s-2.19.675-4.528 1.5-4.645 1.5-5.126 1.5-.874-2.475-.874-5.5c0-5.095-.172-5.5-2.333-5.5zM438 446c-2.97 0-3 .056-3 5.5 0 6.014-.31 6.233-5.654 4-4.797-2.004-4.991-1.958-6.185 1.469-1.03 2.953-1.008 2.977 4.379 4.675l5.414 1.707-7.321 8.933 2.294 1.858c3.125 2.531 3.429 2.43 6.454-2.142 1.456-2.2 3.031-4 3.5-4s2.038 1.79 3.486 3.979c2.43 3.671 2.826 3.89 5.133 2.839 3.226-1.47 3.15-2.541-.536-7.553l-3.036-4.128 4.786-1.378c4.345-1.251 4.767-1.638 4.581-4.19-.113-1.547-.38-2.987-.594-3.201s-2.316.29-4.671 1.121-4.675 1.511-5.156 1.511-.874-2.475-.874-5.5c0-5.444-.03-5.5-3-5.5zm-54.126-281.916c-3.575.068-12.276 3.952-47.609 21.25-24.813 12.147-44.413 22.348-46 23.94l-2.765 2.774v45.726c0 49.88.381 54.16 6.085 68.282 3.721 9.213 12.322 21.696 19.671 28.548 3.479 3.243 13.631 10.846 22.56 16.896l29.96 20.474c12.38 8.546 14.172 9.477 18.297 9.5 3.39.019 5.589-.682 8.5-2.713L432 371.531c9.625-6.574 19.695-13.996 22.378-16.492 10.915-10.155 19.93-25.34 23.921-40.293 2.122-7.95 2.201-9.96 2.201-55.967 0-46.401-.055-47.776-2-49.683-1.1-1.078-21.857-11.666-46.126-23.528-37.834-18.492-44.751-21.556-48.5-21.484z"/></g><path d="M639.756 120.88c14.406-13.565 31.39-18.527 49.111-14.349 19.077 4.497 33.004 17.621 39.761 37.469 1.733 5.092 1.872 9.285 1.872 56.5v51l-107.5.517v-49.298c0-54.574.052-55.117 6.505-68.339 2.523-5.168 5.332-8.869 10.251-13.5z"/></g><defs><clipPath id="A"><path fill="#fff" d="M0 0h800v800H0z"/></clipPath></defs></svg>
